<svg width="115" height="21" viewBox="0 0 115 21" fill="none" xmlns="http://www.w3.org/2000/svg">
<path d="M6.708 20.252C5.644 20.252 4.58 20.2147 3.516 20.14C2.47067 20.084 1.37867 19.9347 0.24 19.692V0.875999C1.136 0.707999 2.116 0.586666 3.18 0.511999C4.244 0.418666 5.23333 0.371999 6.148 0.371999C7.38 0.371999 8.50933 0.465332 9.536 0.651999C10.5813 0.819999 11.4773 1.11867 12.224 1.548C12.9707 1.97733 13.5493 2.54667 13.96 3.256C14.3893 3.94667 14.604 4.80533 14.604 5.832C14.604 7.38133 13.8573 8.604 12.364 9.5C13.596 9.96667 14.436 10.6013 14.884 11.404C15.332 12.2067 15.556 13.112 15.556 14.12C15.556 16.1547 14.8093 17.6853 13.316 18.712C11.8413 19.7387 9.63867 20.252 6.708 20.252ZM4.496 11.544V16.556C4.81333 16.5933 5.15867 16.6213 5.532 16.64C5.90533 16.6587 6.316 16.668 6.764 16.668C8.07067 16.668 9.12533 16.4813 9.928 16.108C10.7307 15.7347 11.132 15.044 11.132 14.036C11.132 13.14 10.796 12.5053 10.124 12.132C9.452 11.74 8.49067 11.544 7.24 11.544H4.496ZM4.496 8.212H6.624C7.968 8.212 8.92933 8.044 9.508 7.708C10.0867 7.35333 10.376 6.79333 10.376 6.028C10.376 5.244 10.0773 4.69333 9.48 4.376C8.88267 4.05867 8.00533 3.9 6.848 3.9C6.47467 3.9 6.07333 3.90933 5.644 3.928C5.21467 3.928 4.832 3.94667 4.496 3.984V8.212ZM26.6405 20.392C25.2778 20.392 24.1018 20.2053 23.1125 19.832C22.1232 19.44 21.3018 18.908 20.6485 18.236C20.0138 17.5453 19.5378 16.7333 19.2205 15.8C18.9218 14.848 18.7725 13.8027 18.7725 12.664V0.595999H23.1405V12.3C23.1405 13.084 23.2245 13.756 23.3925 14.316C23.5792 14.8573 23.8218 15.3053 24.1205 15.66C24.4378 15.996 24.8112 16.2387 25.2405 16.388C25.6885 16.5373 26.1738 16.612 26.6965 16.612C27.7605 16.612 28.6192 16.2853 29.2725 15.632C29.9445 14.9787 30.2805 13.868 30.2805 12.3V0.595999H34.6485V12.664C34.6485 13.8027 34.4898 14.848 34.1725 15.8C33.8552 16.752 33.3698 17.5733 32.7165 18.264C32.0632 18.936 31.2325 19.4587 30.2245 19.832C29.2165 20.2053 28.0218 20.392 26.6405 20.392ZM51.8134 16.248V20H38.8494V0.595999H43.2174V16.248H51.8134ZM67.5907 16.248V20H54.6267V0.595999H58.9947V16.248H67.5907ZM75.3332 17.788C75.3332 18.628 75.0625 19.272 74.5212 19.72C73.9985 20.1493 73.4012 20.364 72.7292 20.364C72.0572 20.364 71.4505 20.1493 70.9092 19.72C70.3865 19.272 70.1252 18.628 70.1252 17.788C70.1252 16.948 70.3865 16.3133 70.9092 15.884C71.4505 15.436 72.0572 15.212 72.7292 15.212C73.4012 15.212 73.9985 15.436 74.5212 15.884C75.0625 16.3133 75.3332 16.948 75.3332 17.788ZM89.8678 20C89.4758 19.3653 89.0091 18.684 88.4678 17.956C87.9451 17.2093 87.3664 16.472 86.7318 15.744C86.1158 14.9973 85.4718 14.288 84.7998 13.616C84.1278 12.9253 83.4558 12.3187 82.7838 11.796V20H78.4158V0.595999H82.7838V7.932C83.9224 6.73733 85.0611 5.496 86.1998 4.208C87.3571 2.90133 88.4304 1.69733 89.4198 0.595999H94.5998C93.2744 2.164 91.9398 3.676 90.5958 5.132C89.2704 6.588 87.8704 8.05333 86.3958 9.528C87.9451 10.816 89.4384 12.3467 90.8758 14.12C92.3318 15.8933 93.7224 17.8533 95.0478 20H89.8678ZM99.6932 10.284C99.6932 11.236 99.8052 12.0947 100.029 12.86C100.272 13.6253 100.608 14.288 101.037 14.848C101.485 15.3893 102.026 15.8093 102.661 16.108C103.296 16.4067 104.024 16.556 104.845 16.556C105.648 16.556 106.366 16.4067 107.001 16.108C107.654 15.8093 108.196 15.3893 108.625 14.848C109.073 14.288 109.409 13.6253 109.633 12.86C109.876 12.0947 109.997 11.236 109.997 10.284C109.997 9.332 109.876 8.47333 109.633 7.708C109.409 6.924 109.073 6.26133 108.625 5.72C108.196 5.16 107.654 4.73067 107.001 4.432C106.366 4.13333 105.648 3.984 104.845 3.984C104.024 3.984 103.296 4.14267 102.661 4.46C102.026 4.75867 101.485 5.188 101.037 5.748C100.608 6.28933 100.272 6.952 100.029 7.736C99.8052 8.50133 99.6932 9.35067 99.6932 10.284ZM114.505 10.284C114.505 11.9453 114.253 13.4107 113.749 14.68C113.264 15.9307 112.592 16.9853 111.733 17.844C110.874 18.684 109.848 19.3187 108.653 19.748C107.477 20.1773 106.208 20.392 104.845 20.392C103.52 20.392 102.269 20.1773 101.093 19.748C99.9172 19.3187 98.8905 18.684 98.0132 17.844C97.1358 16.9853 96.4452 15.9307 95.9412 14.68C95.4372 13.4107 95.1852 11.9453 95.1852 10.284C95.1852 8.62267 95.4465 7.16667 95.9692 5.916C96.4918 4.64667 97.1918 3.58267 98.0692 2.724C98.9652 1.86533 99.9918 1.22133 101.149 0.791999C102.325 0.362665 103.557 0.147999 104.845 0.147999C106.17 0.147999 107.421 0.362665 108.597 0.791999C109.773 1.22133 110.8 1.86533 111.677 2.724C112.554 3.58267 113.245 4.64667 113.749 5.916C114.253 7.16667 114.505 8.62267 114.505 10.284Z" fill="white"/>
</svg>
